# xmcd CD database file
#
# Track frame offsets:
#	183
#	18148
#	33360
#	48395
#	63678
#	83943
#	98863
#	113865
#	130355
#	149673
#	167348
#	180078
#
# Disc length: 2605 seconds
#
# Revision: 1
# Processed by: cddbd v1.5.2PL0 Copyright (c) Steve Scherf et al.
# Submitted via: CDex 1.51
#
DISCID=9b0a2b0c
DTITLE=Roberto Jacketti and the Scooters - Madman
DYEAR=1988
DGENRE=Pop
TTITLE0=Toy Down
TTITLE1=Don;t Mess Around
TTITLE2=Footsteps
TTITLE3=Man With Illusions
TTITLE4=Same Time, Same Place
TTITLE5=Don't Call Me
TTITLE6=Sweety Baby
TTITLE7=Can't Stop Falling in Love
TTITLE8=Madman Institue
TTITLE9=Always be there
TTITLE10=Something about her
TTITLE11=The Sun
EXTD=YEAR: 1988
EXTT0=
EXTT1=
EXTT2=
EXTT3=
EXTT4=
EXTT5=
EXTT6=
EXTT7=
EXTT8=
EXTT9=
EXTT10=
EXTT11=
PLAYORDER=
